<?xml version="1.0" encoding="utf-8" standalone="no"?>
<!DOCTYPE svg PUBLIC "-//W3C//DTD SVG 1.1//EN"
  "http://www.w3.org/Graphics/SVG/1.1/DTD/svg11.dtd">
<svg xmlns:xlink="http://www.w3.org/1999/xlink" width="1359.9625pt" height="759.9875pt" viewBox="0 0 1359.9625 759.9875" xmlns="http://www.w3.org/2000/svg" version="1.1">
 <metadata>
  <rdf:RDF xmlns:dc="http://purl.org/dc/elements/1.1/" xmlns:cc="http://creativecommons.org/ns#" xmlns:rdf="http://www.w3.org/1999/02/22-rdf-syntax-ns#">
   <cc:Work>
    <dc:type rdf:resource="http://purl.org/dc/dcmitype/StillImage"/>
    <dc:date>2023-06-12T09:00:51.488887</dc:date>
    <dc:format>image/svg+xml</dc:format>
    <dc:creator>
     <cc:Agent>
      <dc:title>Matplotlib v3.5.3, https://matplotlib.org/</dc:title>
     </cc:Agent>
    </dc:creator>
   </cc:Work>
  </rdf:RDF>
 </metadata>
 <defs>
  <style type="text/css">*{stroke-linejoin: round; stroke-linecap: butt}</style>
 </defs>
 <g id="figure_1">
  <g id="patch_1">
   <path d="M 0 759.9875 
L 1359.9625 759.9875 
L 1359.9625 0 
L 0 0 
z
" style="fill: #ffffff"/>
  </g>
  <g id="axes_1">
   <g id="patch_2">
    <path d="M 13.5625 698.235937 
L 1352.7625 698.235937 
L 1352.7625 32.955937 
L 13.5625 32.955937 
z
" style="fill: #ffffff"/>
   </g>
   <g id="patch_3">
    <path d="M 13.5625 46.261537 
L 1288.991071 46.261537 
L 1288.991071 152.706337 
L 13.5625 152.706337 
z
" clip-path="url(#p6f6f7a2008)" style="fill: #95cbec"/>
   </g>
   <g id="patch_4">
    <path d="M 13.5625 179.317537 
L 1189.700976 179.317537 
L 1189.700976 285.762337 
L 13.5625 285.762337 
z
" clip-path="url(#p6f6f7a2008)" style="fill: #95cbec"/>
   </g>
   <g id="patch_5">
    <path d="M 13.5625 312.373537 
L 1075.733139 312.373537 
L 1075.733139 418.818337 
L 13.5625 418.818337 
z
" clip-path="url(#p6f6f7a2008)" style="fill: #95cbec"/>
   </g>
   <g id="patch_6">
    <path d="M 13.5625 445.429537 
L 1036.13168 445.429537 
L 1036.13168 551.874338 
L 13.5625 551.874338 
z
" clip-path="url(#p6f6f7a2008)" style="fill: #95cbec"/>
   </g>
   <g id="patch_7">
    <path d="M 13.5625 578.485537 
L 834.171312 578.485537 
L 834.171312 684.930337 
L 13.5625 684.930337 
z
" clip-path="url(#p6f6f7a2008)" style="fill: #95cbec"/>
   </g>
   <g id="matplotlib.axis_1">
    <g id="xtick_1">
     <g id="line2d_1">
      <defs>
       <path id="me0d5796378" d="M 0 0 
L 0 3.5 
" style="stroke: #000000; stroke-width: 0.8"/>
      </defs>
      <g>
       <use xlink:href="#me0d5796378" x="13.5625" y="698.235937" style="stroke: #000000; stroke-width: 0.8"/>
      </g>
     </g>
     <g id="text_1">
      <!-- 0 -->
      <g transform="translate(7.2 720.432812)scale(0.2 -0.2)">
       <defs>
        <path id="DejaVuSans-30" d="M 2034 4250 
Q 1547 4250 1301 3770 
Q 1056 3291 1056 2328 
Q 1056 1369 1301 889 
Q 1547 409 2034 409 
Q 2525 409 2770 889 
Q 3016 1369 3016 2328 
Q 3016 3291 2770 3770 
Q 2525 4250 2034 4250 
z
M 2034 4750 
Q 2819 4750 3233 4129 
Q 3647 3509 3647 2328 
Q 3647 1150 3233 529 
Q 2819 -91 2034 -91 
Q 1250 -91 836 529 
Q 422 1150 422 2328 
Q 422 3509 836 4129 
Q 1250 4750 2034 4750 
z
" transform="scale(0.015625)"/>
       </defs>
       <use xlink:href="#DejaVuSans-30"/>
      </g>
     </g>
    </g>
    <g id="xtick_2">
     <g id="line2d_2">
      <g>
       <use xlink:href="#me0d5796378" x="403.887551" y="698.235937" style="stroke: #000000; stroke-width: 0.8"/>
      </g>
     </g>
     <g id="text_2">
      <!-- 1 -->
      <g transform="translate(397.525051 720.432812)scale(0.2 -0.2)">
       <defs>
        <path id="DejaVuSans-31" d="M 794 531 
L 1825 531 
L 1825 4091 
L 703 3866 
L 703 4441 
L 1819 4666 
L 2450 4666 
L 2450 531 
L 3481 531 
L 3481 0 
L 794 0 
L 794 531 
z
" transform="scale(0.015625)"/>
       </defs>
       <use xlink:href="#DejaVuSans-31"/>
      </g>
     </g>
    </g>
    <g id="xtick_3">
     <g id="line2d_3">
      <g>
       <use xlink:href="#me0d5796378" x="794.212601" y="698.235937" style="stroke: #000000; stroke-width: 0.8"/>
      </g>
     </g>
     <g id="text_3">
      <!-- 2 -->
      <g transform="translate(787.850101 720.432812)scale(0.2 -0.2)">
       <defs>
        <path id="DejaVuSans-32" d="M 1228 531 
L 3431 531 
L 3431 0 
L 469 0 
L 469 531 
Q 828 903 1448 1529 
Q 2069 2156 2228 2338 
Q 2531 2678 2651 2914 
Q 2772 3150 2772 3378 
Q 2772 3750 2511 3984 
Q 2250 4219 1831 4219 
Q 1534 4219 1204 4116 
Q 875 4013 500 3803 
L 500 4441 
Q 881 4594 1212 4672 
Q 1544 4750 1819 4750 
Q 2544 4750 2975 4387 
Q 3406 4025 3406 3419 
Q 3406 3131 3298 2873 
Q 3191 2616 2906 2266 
Q 2828 2175 2409 1742 
Q 1991 1309 1228 531 
z
" transform="scale(0.015625)"/>
       </defs>
       <use xlink:href="#DejaVuSans-32"/>
      </g>
     </g>
    </g>
    <g id="xtick_4">
     <g id="line2d_4">
      <g>
       <use xlink:href="#me0d5796378" x="1184.537652" y="698.235937" style="stroke: #000000; stroke-width: 0.8"/>
      </g>
     </g>
     <g id="text_4">
      <!-- 3 -->
      <g transform="translate(1178.175152 720.432812)scale(0.2 -0.2)">
       <defs>
        <path id="DejaVuSans-33" d="M 2597 2516 
Q 3050 2419 3304 2112 
Q 3559 1806 3559 1356 
Q 3559 666 3084 287 
Q 2609 -91 1734 -91 
Q 1441 -91 1130 -33 
Q 819 25 488 141 
L 488 750 
Q 750 597 1062 519 
Q 1375 441 1716 441 
Q 2309 441 2620 675 
Q 2931 909 2931 1356 
Q 2931 1769 2642 2001 
Q 2353 2234 1838 2234 
L 1294 2234 
L 1294 2753 
L 1863 2753 
Q 2328 2753 2575 2939 
Q 2822 3125 2822 3475 
Q 2822 3834 2567 4026 
Q 2313 4219 1838 4219 
Q 1578 4219 1281 4162 
Q 984 4106 628 3988 
L 628 4550 
Q 988 4650 1302 4700 
Q 1616 4750 1894 4750 
Q 2613 4750 3031 4423 
Q 3450 4097 3450 3541 
Q 3450 3153 3228 2886 
Q 3006 2619 2597 2516 
z
" transform="scale(0.015625)"/>
       </defs>
       <use xlink:href="#DejaVuSans-33"/>
      </g>
     </g>
    </g>
    <g id="text_5">
     <!-- −log₁₀(p‐value) -->
     <g transform="translate(587.592188 747.588281)scale(0.25 -0.25)">
      <defs>
       <path id="DejaVuSans-2212" d="M 678 2272 
L 4684 2272 
L 4684 1741 
L 678 1741 
L 678 2272 
z
" transform="scale(0.015625)"/>
       <path id="DejaVuSans-6c" d="M 603 4863 
L 1178 4863 
L 1178 0 
L 603 0 
L 603 4863 
z
" transform="scale(0.015625)"/>
       <path id="DejaVuSans-6f" d="M 1959 3097 
Q 1497 3097 1228 2736 
Q 959 2375 959 1747 
Q 959 1119 1226 758 
Q 1494 397 1959 397 
Q 2419 397 2687 759 
Q 2956 1122 2956 1747 
Q 2956 2369 2687 2733 
Q 2419 3097 1959 3097 
z
M 1959 3584 
Q 2709 3584 3137 3096 
Q 3566 2609 3566 1747 
Q 3566 888 3137 398 
Q 2709 -91 1959 -91 
Q 1206 -91 779 398 
Q 353 888 353 1747 
Q 353 2609 779 3096 
Q 1206 3584 1959 3584 
z
" transform="scale(0.015625)"/>
       <path id="DejaVuSans-67" d="M 2906 1791 
Q 2906 2416 2648 2759 
Q 2391 3103 1925 3103 
Q 1463 3103 1205 2759 
Q 947 2416 947 1791 
Q 947 1169 1205 825 
Q 1463 481 1925 481 
Q 2391 481 2648 825 
Q 2906 1169 2906 1791 
z
M 3481 434 
Q 3481 -459 3084 -895 
Q 2688 -1331 1869 -1331 
Q 1566 -1331 1297 -1286 
Q 1028 -1241 775 -1147 
L 775 -588 
Q 1028 -725 1275 -790 
Q 1522 -856 1778 -856 
Q 2344 -856 2625 -561 
Q 2906 -266 2906 331 
L 2906 616 
Q 2728 306 2450 153 
Q 2172 0 1784 0 
Q 1141 0 747 490 
Q 353 981 353 1791 
Q 353 2603 747 3093 
Q 1141 3584 1784 3584 
Q 2172 3584 2450 3431 
Q 2728 3278 2906 2969 
L 2906 3500 
L 3481 3500 
L 3481 434 
z
" transform="scale(0.015625)"/>
       <path id="DejaVuSans-2081" d="M 488 343 
L 1125 343 
L 1125 2253 
L 428 2125 
L 428 2487 
L 1147 2609 
L 1575 2609 
L 1575 343 
L 2216 343 
L 2216 0 
L 488 0 
L 488 343 
z
" transform="scale(0.015625)"/>
       <path id="DejaVuSans-2080" d="M 1781 2115 
Q 1625 2384 1309 2384 
Q 994 2384 838 2115 
Q 678 1846 678 1309 
Q 678 768 838 500 
Q 994 231 1309 231 
Q 1625 231 1781 500 
Q 1941 768 1941 1309 
Q 1941 1846 1781 2115 
z
M 1309 2662 
Q 1813 2662 2078 2315 
Q 2344 1968 2344 1309 
Q 2344 646 2078 299 
Q 1813 -47 1309 -47 
Q 803 -47 537 299 
Q 272 646 272 1309 
Q 272 1968 537 2315 
Q 803 2662 1309 2662 
z
" transform="scale(0.015625)"/>
       <path id="DejaVuSans-28" d="M 1984 4856 
Q 1566 4138 1362 3434 
Q 1159 2731 1159 2009 
Q 1159 1288 1364 580 
Q 1569 -128 1984 -844 
L 1484 -844 
Q 1016 -109 783 600 
Q 550 1309 550 2009 
Q 550 2706 781 3412 
Q 1013 4119 1484 4856 
L 1984 4856 
z
" transform="scale(0.015625)"/>
       <path id="DejaVuSans-70" d="M 1159 525 
L 1159 -1331 
L 581 -1331 
L 581 3500 
L 1159 3500 
L 1159 2969 
Q 1341 3281 1617 3432 
Q 1894 3584 2278 3584 
Q 2916 3584 3314 3078 
Q 3713 2572 3713 1747 
Q 3713 922 3314 415 
Q 2916 -91 2278 -91 
Q 1894 -91 1617 61 
Q 1341 213 1159 525 
z
M 3116 1747 
Q 3116 2381 2855 2742 
Q 2594 3103 2138 3103 
Q 1681 3103 1420 2742 
Q 1159 2381 1159 1747 
Q 1159 1113 1420 752 
Q 1681 391 2138 391 
Q 2594 391 2855 752 
Q 3116 1113 3116 1747 
z
" transform="scale(0.015625)"/>
       <path id="DejaVuSans-2010" d="M 313 2009 
L 1997 2009 
L 1997 1497 
L 313 1497 
L 313 2009 
z
" transform="scale(0.015625)"/>
       <path id="DejaVuSans-76" d="M 191 3500 
L 800 3500 
L 1894 563 
L 2988 3500 
L 3597 3500 
L 2284 0 
L 1503 0 
L 191 3500 
z
" transform="scale(0.015625)"/>
       <path id="DejaVuSans-61" d="M 2194 1759 
Q 1497 1759 1228 1600 
Q 959 1441 959 1056 
Q 959 750 1161 570 
Q 1363 391 1709 391 
Q 2188 391 2477 730 
Q 2766 1069 2766 1631 
L 2766 1759 
L 2194 1759 
z
M 3341 1997 
L 3341 0 
L 2766 0 
L 2766 531 
Q 2569 213 2275 61 
Q 1981 -91 1556 -91 
Q 1019 -91 701 211 
Q 384 513 384 1019 
Q 384 1609 779 1909 
Q 1175 2209 1959 2209 
L 2766 2209 
L 2766 2266 
Q 2766 2663 2505 2880 
Q 2244 3097 1772 3097 
Q 1472 3097 1187 3025 
Q 903 2953 641 2809 
L 641 3341 
Q 956 3463 1253 3523 
Q 1550 3584 1831 3584 
Q 2591 3584 2966 3190 
Q 3341 2797 3341 1997 
z
" transform="scale(0.015625)"/>
       <path id="DejaVuSans-75" d="M 544 1381 
L 544 3500 
L 1119 3500 
L 1119 1403 
Q 1119 906 1312 657 
Q 1506 409 1894 409 
Q 2359 409 2629 706 
Q 2900 1003 2900 1516 
L 2900 3500 
L 3475 3500 
L 3475 0 
L 2900 0 
L 2900 538 
Q 2691 219 2414 64 
Q 2138 -91 1772 -91 
Q 1169 -91 856 284 
Q 544 659 544 1381 
z
M 1991 3584 
L 1991 3584 
z
" transform="scale(0.015625)"/>
       <path id="DejaVuSans-65" d="M 3597 1894 
L 3597 1613 
L 953 1613 
Q 991 1019 1311 708 
Q 1631 397 2203 397 
Q 2534 397 2845 478 
Q 3156 559 3463 722 
L 3463 178 
Q 3153 47 2828 -22 
Q 2503 -91 2169 -91 
Q 1331 -91 842 396 
Q 353 884 353 1716 
Q 353 2575 817 3079 
Q 1281 3584 2069 3584 
Q 2775 3584 3186 3129 
Q 3597 2675 3597 1894 
z
M 3022 2063 
Q 3016 2534 2758 2815 
Q 2500 3097 2075 3097 
Q 1594 3097 1305 2825 
Q 1016 2553 972 2059 
L 3022 2063 
z
" transform="scale(0.015625)"/>
       <path id="DejaVuSans-29" d="M 513 4856 
L 1013 4856 
Q 1481 4119 1714 3412 
Q 1947 2706 1947 2009 
Q 1947 1309 1714 600 
Q 1481 -109 1013 -844 
L 513 -844 
Q 928 -128 1133 580 
Q 1338 1288 1338 2009 
Q 1338 2731 1133 3434 
Q 928 4138 513 4856 
z
" transform="scale(0.015625)"/>
      </defs>
      <use xlink:href="#DejaVuSans-2212"/>
      <use xlink:href="#DejaVuSans-6c" x="83.789062"/>
      <use xlink:href="#DejaVuSans-6f" x="111.572266"/>
      <use xlink:href="#DejaVuSans-67" x="172.753906"/>
      <use xlink:href="#DejaVuSans-2081" x="236.230469"/>
      <use xlink:href="#DejaVuSans-2080" x="276.318359"/>
      <use xlink:href="#DejaVuSans-28" x="316.40625"/>
      <use xlink:href="#DejaVuSans-70" x="355.419922"/>
      <use xlink:href="#DejaVuSans-2010" x="418.896484"/>
      <use xlink:href="#DejaVuSans-76" x="452.355469"/>
      <use xlink:href="#DejaVuSans-61" x="511.535156"/>
      <use xlink:href="#DejaVuSans-6c" x="572.814453"/>
      <use xlink:href="#DejaVuSans-75" x="600.597656"/>
      <use xlink:href="#DejaVuSans-65" x="663.976562"/>
      <use xlink:href="#DejaVuSans-29" x="725.5"/>
     </g>
    </g>
   </g>
   <g id="line2d_5">
    <path clip-path="url(#p6f6f7a2008)" style="fill: none; stroke: #424242; stroke-width: 2.7; stroke-linecap: square"/>
   </g>
   <g id="line2d_6">
    <path clip-path="url(#p6f6f7a2008)" style="fill: none; stroke: #424242; stroke-width: 2.7; stroke-linecap: square"/>
   </g>
   <g id="line2d_7">
    <path clip-path="url(#p6f6f7a2008)" style="fill: none; stroke: #424242; stroke-width: 2.7; stroke-linecap: square"/>
   </g>
   <g id="line2d_8">
    <path clip-path="url(#p6f6f7a2008)" style="fill: none; stroke: #424242; stroke-width: 2.7; stroke-linecap: square"/>
   </g>
   <g id="line2d_9">
    <path clip-path="url(#p6f6f7a2008)" style="fill: none; stroke: #424242; stroke-width: 2.7; stroke-linecap: square"/>
   </g>
   <g id="patch_8">
    <path d="M 13.5625 698.235937 
L 13.5625 32.955937 
" style="fill: none; stroke: #000000; stroke-width: 0.8; stroke-linejoin: miter; stroke-linecap: square"/>
   </g>
   <g id="patch_9">
    <path d="M 13.5625 698.235937 
L 1352.7625 698.235937 
" style="fill: none; stroke: #000000; stroke-width: 0.8; stroke-linejoin: miter; stroke-linecap: square"/>
   </g>
   <g id="text_6">
    <!-- Cytosolic ribosome -->
    <g transform="translate(20.2585 99.483937)scale(0.26 -0.26)">
     <defs>
      <path id="DejaVuSans-43" d="M 4122 4306 
L 4122 3641 
Q 3803 3938 3442 4084 
Q 3081 4231 2675 4231 
Q 1875 4231 1450 3742 
Q 1025 3253 1025 2328 
Q 1025 1406 1450 917 
Q 1875 428 2675 428 
Q 3081 428 3442 575 
Q 3803 722 4122 1019 
L 4122 359 
Q 3791 134 3420 21 
Q 3050 -91 2638 -91 
Q 1578 -91 968 557 
Q 359 1206 359 2328 
Q 359 3453 968 4101 
Q 1578 4750 2638 4750 
Q 3056 4750 3426 4639 
Q 3797 4528 4122 4306 
z
" transform="scale(0.015625)"/>
      <path id="DejaVuSans-79" d="M 2059 -325 
Q 1816 -950 1584 -1140 
Q 1353 -1331 966 -1331 
L 506 -1331 
L 506 -850 
L 844 -850 
Q 1081 -850 1212 -737 
Q 1344 -625 1503 -206 
L 1606 56 
L 191 3500 
L 800 3500 
L 1894 763 
L 2988 3500 
L 3597 3500 
L 2059 -325 
z
" transform="scale(0.015625)"/>
      <path id="DejaVuSans-74" d="M 1172 4494 
L 1172 3500 
L 2356 3500 
L 2356 3053 
L 1172 3053 
L 1172 1153 
Q 1172 725 1289 603 
Q 1406 481 1766 481 
L 2356 481 
L 2356 0 
L 1766 0 
Q 1100 0 847 248 
Q 594 497 594 1153 
L 594 3053 
L 172 3053 
L 172 3500 
L 594 3500 
L 594 4494 
L 1172 4494 
z
" transform="scale(0.015625)"/>
      <path id="DejaVuSans-73" d="M 2834 3397 
L 2834 2853 
Q 2591 2978 2328 3040 
Q 2066 3103 1784 3103 
Q 1356 3103 1142 2972 
Q 928 2841 928 2578 
Q 928 2378 1081 2264 
Q 1234 2150 1697 2047 
L 1894 2003 
Q 2506 1872 2764 1633 
Q 3022 1394 3022 966 
Q 3022 478 2636 193 
Q 2250 -91 1575 -91 
Q 1294 -91 989 -36 
Q 684 19 347 128 
L 347 722 
Q 666 556 975 473 
Q 1284 391 1588 391 
Q 1994 391 2212 530 
Q 2431 669 2431 922 
Q 2431 1156 2273 1281 
Q 2116 1406 1581 1522 
L 1381 1569 
Q 847 1681 609 1914 
Q 372 2147 372 2553 
Q 372 3047 722 3315 
Q 1072 3584 1716 3584 
Q 2034 3584 2315 3537 
Q 2597 3491 2834 3397 
z
" transform="scale(0.015625)"/>
      <path id="DejaVuSans-69" d="M 603 3500 
L 1178 3500 
L 1178 0 
L 603 0 
L 603 3500 
z
M 603 4863 
L 1178 4863 
L 1178 4134 
L 603 4134 
L 603 4863 
z
" transform="scale(0.015625)"/>
      <path id="DejaVuSans-63" d="M 3122 3366 
L 3122 2828 
Q 2878 2963 2633 3030 
Q 2388 3097 2138 3097 
Q 1578 3097 1268 2742 
Q 959 2388 959 1747 
Q 959 1106 1268 751 
Q 1578 397 2138 397 
Q 2388 397 2633 464 
Q 2878 531 3122 666 
L 3122 134 
Q 2881 22 2623 -34 
Q 2366 -91 2075 -91 
Q 1284 -91 818 406 
Q 353 903 353 1747 
Q 353 2603 823 3093 
Q 1294 3584 2113 3584 
Q 2378 3584 2631 3529 
Q 2884 3475 3122 3366 
z
" transform="scale(0.015625)"/>
      <path id="DejaVuSans-20" transform="scale(0.015625)"/>
      <path id="DejaVuSans-72" d="M 2631 2963 
Q 2534 3019 2420 3045 
Q 2306 3072 2169 3072 
Q 1681 3072 1420 2755 
Q 1159 2438 1159 1844 
L 1159 0 
L 581 0 
L 581 3500 
L 1159 3500 
L 1159 2956 
Q 1341 3275 1631 3429 
Q 1922 3584 2338 3584 
Q 2397 3584 2469 3576 
Q 2541 3569 2628 3553 
L 2631 2963 
z
" transform="scale(0.015625)"/>
      <path id="DejaVuSans-62" d="M 3116 1747 
Q 3116 2381 2855 2742 
Q 2594 3103 2138 3103 
Q 1681 3103 1420 2742 
Q 1159 2381 1159 1747 
Q 1159 1113 1420 752 
Q 1681 391 2138 391 
Q 2594 391 2855 752 
Q 3116 1113 3116 1747 
z
M 1159 2969 
Q 1341 3281 1617 3432 
Q 1894 3584 2278 3584 
Q 2916 3584 3314 3078 
Q 3713 2572 3713 1747 
Q 3713 922 3314 415 
Q 2916 -91 2278 -91 
Q 1894 -91 1617 61 
Q 1341 213 1159 525 
L 1159 0 
L 581 0 
L 581 4863 
L 1159 4863 
L 1159 2969 
z
" transform="scale(0.015625)"/>
      <path id="DejaVuSans-6d" d="M 3328 2828 
Q 3544 3216 3844 3400 
Q 4144 3584 4550 3584 
Q 5097 3584 5394 3201 
Q 5691 2819 5691 2113 
L 5691 0 
L 5113 0 
L 5113 2094 
Q 5113 2597 4934 2840 
Q 4756 3084 4391 3084 
Q 3944 3084 3684 2787 
Q 3425 2491 3425 1978 
L 3425 0 
L 2847 0 
L 2847 2094 
Q 2847 2600 2669 2842 
Q 2491 3084 2119 3084 
Q 1678 3084 1418 2786 
Q 1159 2488 1159 1978 
L 1159 0 
L 581 0 
L 581 3500 
L 1159 3500 
L 1159 2956 
Q 1356 3278 1631 3431 
Q 1906 3584 2284 3584 
Q 2666 3584 2933 3390 
Q 3200 3197 3328 2828 
z
" transform="scale(0.015625)"/>
     </defs>
     <use xlink:href="#DejaVuSans-43"/>
     <use xlink:href="#DejaVuSans-79" x="69.824219"/>
     <use xlink:href="#DejaVuSans-74" x="129.003906"/>
     <use xlink:href="#DejaVuSans-6f" x="168.212891"/>
     <use xlink:href="#DejaVuSans-73" x="229.394531"/>
     <use xlink:href="#DejaVuSans-6f" x="281.494141"/>
     <use xlink:href="#DejaVuSans-6c" x="342.675781"/>
     <use xlink:href="#DejaVuSans-69" x="370.458984"/>
     <use xlink:href="#DejaVuSans-63" x="398.242188"/>
     <use xlink:href="#DejaVuSans-20" x="453.222656"/>
     <use xlink:href="#DejaVuSans-72" x="485.009766"/>
     <use xlink:href="#DejaVuSans-69" x="526.123047"/>
     <use xlink:href="#DejaVuSans-62" x="553.90625"/>
     <use xlink:href="#DejaVuSans-6f" x="617.382812"/>
     <use xlink:href="#DejaVuSans-73" x="678.564453"/>
     <use xlink:href="#DejaVuSans-6f" x="730.664062"/>
     <use xlink:href="#DejaVuSans-6d" x="791.845703"/>
     <use xlink:href="#DejaVuSans-65" x="889.257812"/>
    </g>
   </g>
   <g id="text_7">
    <!-- Polysomal ribosome -->
    <g transform="translate(20.2585 232.539937)scale(0.26 -0.26)">
     <defs>
      <path id="DejaVuSans-50" d="M 1259 4147 
L 1259 2394 
L 2053 2394 
Q 2494 2394 2734 2622 
Q 2975 2850 2975 3272 
Q 2975 3691 2734 3919 
Q 2494 4147 2053 4147 
L 1259 4147 
z
M 628 4666 
L 2053 4666 
Q 2838 4666 3239 4311 
Q 3641 3956 3641 3272 
Q 3641 2581 3239 2228 
Q 2838 1875 2053 1875 
L 1259 1875 
L 1259 0 
L 628 0 
L 628 4666 
z
" transform="scale(0.015625)"/>
     </defs>
     <use xlink:href="#DejaVuSans-50"/>
     <use xlink:href="#DejaVuSans-6f" x="56.677734"/>
     <use xlink:href="#DejaVuSans-6c" x="117.859375"/>
     <use xlink:href="#DejaVuSans-79" x="145.642578"/>
     <use xlink:href="#DejaVuSans-73" x="204.822266"/>
     <use xlink:href="#DejaVuSans-6f" x="256.921875"/>
     <use xlink:href="#DejaVuSans-6d" x="318.103516"/>
     <use xlink:href="#DejaVuSans-61" x="415.515625"/>
     <use xlink:href="#DejaVuSans-6c" x="476.794922"/>
     <use xlink:href="#DejaVuSans-20" x="504.578125"/>
     <use xlink:href="#DejaVuSans-72" x="536.365234"/>
     <use xlink:href="#DejaVuSans-69" x="577.478516"/>
     <use xlink:href="#DejaVuSans-62" x="605.261719"/>
     <use xlink:href="#DejaVuSans-6f" x="668.738281"/>
     <use xlink:href="#DejaVuSans-73" x="729.919922"/>
     <use xlink:href="#DejaVuSans-6f" x="782.019531"/>
     <use xlink:href="#DejaVuSans-6d" x="843.201172"/>
     <use xlink:href="#DejaVuSans-65" x="940.613281"/>
    </g>
   </g>
   <g id="text_8">
    <!-- Ribosomal subunit -->
    <g transform="translate(20.2585 365.595937)scale(0.26 -0.26)">
     <defs>
      <path id="DejaVuSans-52" d="M 2841 2188 
Q 3044 2119 3236 1894 
Q 3428 1669 3622 1275 
L 4263 0 
L 3584 0 
L 2988 1197 
Q 2756 1666 2539 1819 
Q 2322 1972 1947 1972 
L 1259 1972 
L 1259 0 
L 628 0 
L 628 4666 
L 2053 4666 
Q 2853 4666 3247 4331 
Q 3641 3997 3641 3322 
Q 3641 2881 3436 2590 
Q 3231 2300 2841 2188 
z
M 1259 4147 
L 1259 2491 
L 2053 2491 
Q 2509 2491 2742 2702 
Q 2975 2913 2975 3322 
Q 2975 3731 2742 3939 
Q 2509 4147 2053 4147 
L 1259 4147 
z
" transform="scale(0.015625)"/>
      <path id="DejaVuSans-6e" d="M 3513 2113 
L 3513 0 
L 2938 0 
L 2938 2094 
Q 2938 2591 2744 2837 
Q 2550 3084 2163 3084 
Q 1697 3084 1428 2787 
Q 1159 2491 1159 1978 
L 1159 0 
L 581 0 
L 581 3500 
L 1159 3500 
L 1159 2956 
Q 1366 3272 1645 3428 
Q 1925 3584 2291 3584 
Q 2894 3584 3203 3211 
Q 3513 2838 3513 2113 
z
" transform="scale(0.015625)"/>
     </defs>
     <use xlink:href="#DejaVuSans-52"/>
     <use xlink:href="#DejaVuSans-69" x="69.482422"/>
     <use xlink:href="#DejaVuSans-62" x="97.265625"/>
     <use xlink:href="#DejaVuSans-6f" x="160.742188"/>
     <use xlink:href="#DejaVuSans-73" x="221.923828"/>
     <use xlink:href="#DejaVuSans-6f" x="274.023438"/>
     <use xlink:href="#DejaVuSans-6d" x="335.205078"/>
     <use xlink:href="#DejaVuSans-61" x="432.617188"/>
     <use xlink:href="#DejaVuSans-6c" x="493.896484"/>
     <use xlink:href="#DejaVuSans-20" x="521.679688"/>
     <use xlink:href="#DejaVuSans-73" x="553.466797"/>
     <use xlink:href="#DejaVuSans-75" x="605.566406"/>
     <use xlink:href="#DejaVuSans-62" x="668.945312"/>
     <use xlink:href="#DejaVuSans-75" x="732.421875"/>
     <use xlink:href="#DejaVuSans-6e" x="795.800781"/>
     <use xlink:href="#DejaVuSans-69" x="859.179688"/>
     <use xlink:href="#DejaVuSans-74" x="886.962891"/>
    </g>
   </g>
   <g id="text_9">
    <!-- Cytosolic large ribosomal subunit -->
    <g transform="translate(20.2585 498.651937)scale(0.26 -0.26)">
     <use xlink:href="#DejaVuSans-43"/>
     <use xlink:href="#DejaVuSans-79" x="69.824219"/>
     <use xlink:href="#DejaVuSans-74" x="129.003906"/>
     <use xlink:href="#DejaVuSans-6f" x="168.212891"/>
     <use xlink:href="#DejaVuSans-73" x="229.394531"/>
     <use xlink:href="#DejaVuSans-6f" x="281.494141"/>
     <use xlink:href="#DejaVuSans-6c" x="342.675781"/>
     <use xlink:href="#DejaVuSans-69" x="370.458984"/>
     <use xlink:href="#DejaVuSans-63" x="398.242188"/>
     <use xlink:href="#DejaVuSans-20" x="453.222656"/>
     <use xlink:href="#DejaVuSans-6c" x="485.009766"/>
     <use xlink:href="#DejaVuSans-61" x="512.792969"/>
     <use xlink:href="#DejaVuSans-72" x="574.072266"/>
     <use xlink:href="#DejaVuSans-67" x="613.435547"/>
     <use xlink:href="#DejaVuSans-65" x="676.912109"/>
     <use xlink:href="#DejaVuSans-20" x="738.435547"/>
     <use xlink:href="#DejaVuSans-72" x="770.222656"/>
     <use xlink:href="#DejaVuSans-69" x="811.335938"/>
     <use xlink:href="#DejaVuSans-62" x="839.119141"/>
     <use xlink:href="#DejaVuSans-6f" x="902.595703"/>
     <use xlink:href="#DejaVuSans-73" x="963.777344"/>
     <use xlink:href="#DejaVuSans-6f" x="1015.876953"/>
     <use xlink:href="#DejaVuSans-6d" x="1077.058594"/>
     <use xlink:href="#DejaVuSans-61" x="1174.470703"/>
     <use xlink:href="#DejaVuSans-6c" x="1235.75"/>
     <use xlink:href="#DejaVuSans-20" x="1263.533203"/>
     <use xlink:href="#DejaVuSans-73" x="1295.320312"/>
     <use xlink:href="#DejaVuSans-75" x="1347.419922"/>
     <use xlink:href="#DejaVuSans-62" x="1410.798828"/>
     <use xlink:href="#DejaVuSans-75" x="1474.275391"/>
     <use xlink:href="#DejaVuSans-6e" x="1537.654297"/>
     <use xlink:href="#DejaVuSans-69" x="1601.033203"/>
     <use xlink:href="#DejaVuSans-74" x="1628.816406"/>
    </g>
   </g>
   <g id="text_10">
    <!-- Ribonucleoprotein complex -->
    <g transform="translate(20.2585 631.707937)scale(0.26 -0.26)">
     <defs>
      <path id="DejaVuSans-78" d="M 3513 3500 
L 2247 1797 
L 3578 0 
L 2900 0 
L 1881 1375 
L 863 0 
L 184 0 
L 1544 1831 
L 300 3500 
L 978 3500 
L 1906 2253 
L 2834 3500 
L 3513 3500 
z
" transform="scale(0.015625)"/>
     </defs>
     <use xlink:href="#DejaVuSans-52"/>
     <use xlink:href="#DejaVuSans-69" x="69.482422"/>
     <use xlink:href="#DejaVuSans-62" x="97.265625"/>
     <use xlink:href="#DejaVuSans-6f" x="160.742188"/>
     <use xlink:href="#DejaVuSans-6e" x="221.923828"/>
     <use xlink:href="#DejaVuSans-75" x="285.302734"/>
     <use xlink:href="#DejaVuSans-63" x="348.681641"/>
     <use xlink:href="#DejaVuSans-6c" x="403.662109"/>
     <use xlink:href="#DejaVuSans-65" x="431.445312"/>
     <use xlink:href="#DejaVuSans-6f" x="492.96875"/>
     <use xlink:href="#DejaVuSans-70" x="554.150391"/>
     <use xlink:href="#DejaVuSans-72" x="617.626953"/>
     <use xlink:href="#DejaVuSans-6f" x="656.490234"/>
     <use xlink:href="#DejaVuSans-74" x="717.671875"/>
     <use xlink:href="#DejaVuSans-65" x="756.880859"/>
     <use xlink:href="#DejaVuSans-69" x="818.404297"/>
     <use xlink:href="#DejaVuSans-6e" x="846.1875"/>
     <use xlink:href="#DejaVuSans-20" x="909.566406"/>
     <use xlink:href="#DejaVuSans-63" x="941.353516"/>
     <use xlink:href="#DejaVuSans-6f" x="996.333984"/>
     <use xlink:href="#DejaVuSans-6d" x="1057.515625"/>
     <use xlink:href="#DejaVuSans-70" x="1154.927734"/>
     <use xlink:href="#DejaVuSans-6c" x="1218.404297"/>
     <use xlink:href="#DejaVuSans-65" x="1246.1875"/>
     <use xlink:href="#DejaVuSans-78" x="1305.960938"/>
    </g>
   </g>
   <g id="text_11">
    <!-- GO Cellular Component -->
    <g transform="translate(529.656875 26.955937)scale(0.26 -0.26)">
     <defs>
      <path id="DejaVuSans-47" d="M 3809 666 
L 3809 1919 
L 2778 1919 
L 2778 2438 
L 4434 2438 
L 4434 434 
Q 4069 175 3628 42 
Q 3188 -91 2688 -91 
Q 1594 -91 976 548 
Q 359 1188 359 2328 
Q 359 3472 976 4111 
Q 1594 4750 2688 4750 
Q 3144 4750 3555 4637 
Q 3966 4525 4313 4306 
L 4313 3634 
Q 3963 3931 3569 4081 
Q 3175 4231 2741 4231 
Q 1884 4231 1454 3753 
Q 1025 3275 1025 2328 
Q 1025 1384 1454 906 
Q 1884 428 2741 428 
Q 3075 428 3337 486 
Q 3600 544 3809 666 
z
" transform="scale(0.015625)"/>
      <path id="DejaVuSans-4f" d="M 2522 4238 
Q 1834 4238 1429 3725 
Q 1025 3213 1025 2328 
Q 1025 1447 1429 934 
Q 1834 422 2522 422 
Q 3209 422 3611 934 
Q 4013 1447 4013 2328 
Q 4013 3213 3611 3725 
Q 3209 4238 2522 4238 
z
M 2522 4750 
Q 3503 4750 4090 4092 
Q 4678 3434 4678 2328 
Q 4678 1225 4090 567 
Q 3503 -91 2522 -91 
Q 1538 -91 948 565 
Q 359 1222 359 2328 
Q 359 3434 948 4092 
Q 1538 4750 2522 4750 
z
" transform="scale(0.015625)"/>
     </defs>
     <use xlink:href="#DejaVuSans-47"/>
     <use xlink:href="#DejaVuSans-4f" x="77.490234"/>
     <use xlink:href="#DejaVuSans-20" x="156.201172"/>
     <use xlink:href="#DejaVuSans-43" x="187.988281"/>
     <use xlink:href="#DejaVuSans-65" x="257.8125"/>
     <use xlink:href="#DejaVuSans-6c" x="319.335938"/>
     <use xlink:href="#DejaVuSans-6c" x="347.119141"/>
     <use xlink:href="#DejaVuSans-75" x="374.902344"/>
     <use xlink:href="#DejaVuSans-6c" x="438.28125"/>
     <use xlink:href="#DejaVuSans-61" x="466.064453"/>
     <use xlink:href="#DejaVuSans-72" x="527.34375"/>
     <use xlink:href="#DejaVuSans-20" x="568.457031"/>
     <use xlink:href="#DejaVuSans-43" x="600.244141"/>
     <use xlink:href="#DejaVuSans-6f" x="670.068359"/>
     <use xlink:href="#DejaVuSans-6d" x="731.25"/>
     <use xlink:href="#DejaVuSans-70" x="828.662109"/>
     <use xlink:href="#DejaVuSans-6f" x="892.138672"/>
     <use xlink:href="#DejaVuSans-6e" x="953.320312"/>
     <use xlink:href="#DejaVuSans-65" x="1016.699219"/>
     <use xlink:href="#DejaVuSans-6e" x="1078.222656"/>
     <use xlink:href="#DejaVuSans-74" x="1141.601562"/>
    </g>
   </g>
  </g>
 </g>
 <defs>
  <clipPath id="p6f6f7a2008">
   <rect x="13.5625" y="32.955937" width="1339.2" height="665.28"/>
  </clipPath>
 </defs>
</svg>
