<?xml version="1.0" encoding="utf-8" standalone="no"?>
<!DOCTYPE svg PUBLIC "-//W3C//DTD SVG 1.1//EN"
  "http://www.w3.org/Graphics/SVG/1.1/DTD/svg11.dtd">
<svg xmlns:xlink="http://www.w3.org/1999/xlink" width="1359.9625pt" height="759.9875pt" viewBox="0 0 1359.9625 759.9875" xmlns="http://www.w3.org/2000/svg" version="1.1">
 <metadata>
  <rdf:RDF xmlns:dc="http://purl.org/dc/elements/1.1/" xmlns:cc="http://creativecommons.org/ns#" xmlns:rdf="http://www.w3.org/1999/02/22-rdf-syntax-ns#">
   <cc:Work>
    <dc:type rdf:resource="http://purl.org/dc/dcmitype/StillImage"/>
    <dc:date>2023-06-12T09:00:52.479029</dc:date>
    <dc:format>image/svg+xml</dc:format>
    <dc:creator>
     <cc:Agent>
      <dc:title>Matplotlib v3.5.3, https://matplotlib.org/</dc:title>
     </cc:Agent>
    </dc:creator>
   </cc:Work>
  </rdf:RDF>
 </metadata>
 <defs>
  <style type="text/css">*{stroke-linejoin: round; stroke-linecap: butt}</style>
 </defs>
 <g id="figure_1">
  <g id="patch_1">
   <path d="M 0 759.9875 
L 1359.9625 759.9875 
L 1359.9625 0 
L 0 0 
z
" style="fill: #ffffff"/>
  </g>
  <g id="axes_1">
   <g id="patch_2">
    <path d="M 13.5625 698.235937 
L 1352.7625 698.235937 
L 1352.7625 32.955937 
L 13.5625 32.955937 
z
" style="fill: #ffffff"/>
   </g>
   <g id="patch_3">
    <path d="M 13.5625 37.707937 
L 1288.991071 37.707937 
L 1288.991071 75.723937 
L 13.5625 75.723937 
z
" clip-path="url(#p5b49a89f58)" style="fill: #95cbec"/>
   </g>
   <g id="patch_4">
    <path d="M 13.5625 85.227938 
L 1219.667364 85.227938 
L 1219.667364 123.243938 
L 13.5625 123.243938 
z
" clip-path="url(#p5b49a89f58)" style="fill: #95cbec"/>
   </g>
   <g id="patch_5">
    <path d="M 13.5625 132.747938 
L 1219.667364 132.747938 
L 1219.667364 170.763938 
L 13.5625 170.763938 
z
" clip-path="url(#p5b49a89f58)" style="fill: #95cbec"/>
   </g>
   <g id="patch_6">
    <path d="M 13.5625 180.267938 
L 1219.667364 180.267938 
L 1219.667364 218.283938 
L 13.5625 218.283938 
z
" clip-path="url(#p5b49a89f58)" style="fill: #95cbec"/>
   </g>
   <g id="patch_7">
    <path d="M 13.5625 227.787937 
L 1219.667364 227.787937 
L 1219.667364 265.803938 
L 13.5625 265.803938 
z
" clip-path="url(#p5b49a89f58)" style="fill: #95cbec"/>
   </g>
   <g id="patch_8">
    <path d="M 13.5625 275.307937 
L 1219.667364 275.307937 
L 1219.667364 313.323937 
L 13.5625 313.323937 
z
" clip-path="url(#p5b49a89f58)" style="fill: #95cbec"/>
   </g>
   <g id="patch_9">
    <path d="M 13.5625 322.827938 
L 1219.667364 322.827938 
L 1219.667364 360.843938 
L 13.5625 360.843938 
z
" clip-path="url(#p5b49a89f58)" style="fill: #95cbec"/>
   </g>
   <g id="patch_10">
    <path d="M 13.5625 370.347938 
L 1219.667364 370.347938 
L 1219.667364 408.363938 
L 13.5625 408.363938 
z
" clip-path="url(#p5b49a89f58)" style="fill: #95cbec"/>
   </g>
   <g id="patch_11">
    <path d="M 13.5625 417.867937 
L 1219.667364 417.867937 
L 1219.667364 455.883938 
L 13.5625 455.883938 
z
" clip-path="url(#p5b49a89f58)" style="fill: #95cbec"/>
   </g>
   <g id="patch_12">
    <path d="M 13.5625 465.387938 
L 1006.839078 465.387938 
L 1006.839078 503.403938 
L 13.5625 503.403938 
z
" clip-path="url(#p5b49a89f58)" style="fill: #95cbec"/>
   </g>
   <g id="patch_13">
    <path d="M 13.5625 512.907938 
L 1006.839078 512.907938 
L 1006.839078 550.923938 
L 13.5625 550.923938 
z
" clip-path="url(#p5b49a89f58)" style="fill: #95cbec"/>
   </g>
   <g id="patch_14">
    <path d="M 13.5625 560.427937 
L 973.984535 560.427937 
L 973.984535 598.443938 
L 13.5625 598.443938 
z
" clip-path="url(#p5b49a89f58)" style="fill: #95cbec"/>
   </g>
   <g id="patch_15">
    <path d="M 13.5625 607.947937 
L 936.514969 607.947937 
L 936.514969 645.963938 
L 13.5625 645.963938 
z
" clip-path="url(#p5b49a89f58)" style="fill: #95cbec"/>
   </g>
   <g id="patch_16">
    <path d="M 13.5625 655.467938 
L 890.274342 655.467938 
L 890.274342 693.483938 
L 13.5625 693.483938 
z
" clip-path="url(#p5b49a89f58)" style="fill: #95cbec"/>
   </g>
   <g id="matplotlib.axis_1">
    <g id="xtick_1">
     <g id="line2d_1">
      <defs>
       <path id="md450049b78" d="M 0 0 
L 0 3.5 
" style="stroke: #000000; stroke-width: 0.8"/>
      </defs>
      <g>
       <use xlink:href="#md450049b78" x="13.5625" y="698.235937" style="stroke: #000000; stroke-width: 0.8"/>
      </g>
     </g>
     <g id="text_1">
      <!-- 0 -->
      <g transform="translate(7.2 720.432812)scale(0.2 -0.2)">
       <defs>
        <path id="DejaVuSans-30" d="M 2034 4250 
Q 1547 4250 1301 3770 
Q 1056 3291 1056 2328 
Q 1056 1369 1301 889 
Q 1547 409 2034 409 
Q 2525 409 2770 889 
Q 3016 1369 3016 2328 
Q 3016 3291 2770 3770 
Q 2525 4250 2034 4250 
z
M 2034 4750 
Q 2819 4750 3233 4129 
Q 3647 3509 3647 2328 
Q 3647 1150 3233 529 
Q 2819 -91 2034 -91 
Q 1250 -91 836 529 
Q 422 1150 422 2328 
Q 422 3509 836 4129 
Q 1250 4750 2034 4750 
z
" transform="scale(0.015625)"/>
       </defs>
       <use xlink:href="#DejaVuSans-30"/>
      </g>
     </g>
    </g>
    <g id="xtick_2">
     <g id="line2d_2">
      <g>
       <use xlink:href="#md450049b78" x="673.785731" y="698.235937" style="stroke: #000000; stroke-width: 0.8"/>
      </g>
     </g>
     <g id="text_2">
      <!-- 1 -->
      <g transform="translate(667.423231 720.432812)scale(0.2 -0.2)">
       <defs>
        <path id="DejaVuSans-31" d="M 794 531 
L 1825 531 
L 1825 4091 
L 703 3866 
L 703 4441 
L 1819 4666 
L 2450 4666 
L 2450 531 
L 3481 531 
L 3481 0 
L 794 0 
L 794 531 
z
" transform="scale(0.015625)"/>
       </defs>
       <use xlink:href="#DejaVuSans-31"/>
      </g>
     </g>
    </g>
    <g id="xtick_3">
     <g id="line2d_3">
      <g>
       <use xlink:href="#md450049b78" x="1334.008961" y="698.235937" style="stroke: #000000; stroke-width: 0.8"/>
      </g>
     </g>
     <g id="text_3">
      <!-- 2 -->
      <g transform="translate(1327.646461 720.432812)scale(0.2 -0.2)">
       <defs>
        <path id="DejaVuSans-32" d="M 1228 531 
L 3431 531 
L 3431 0 
L 469 0 
L 469 531 
Q 828 903 1448 1529 
Q 2069 2156 2228 2338 
Q 2531 2678 2651 2914 
Q 2772 3150 2772 3378 
Q 2772 3750 2511 3984 
Q 2250 4219 1831 4219 
Q 1534 4219 1204 4116 
Q 875 4013 500 3803 
L 500 4441 
Q 881 4594 1212 4672 
Q 1544 4750 1819 4750 
Q 2544 4750 2975 4387 
Q 3406 4025 3406 3419 
Q 3406 3131 3298 2873 
Q 3191 2616 2906 2266 
Q 2828 2175 2409 1742 
Q 1991 1309 1228 531 
z
" transform="scale(0.015625)"/>
       </defs>
       <use xlink:href="#DejaVuSans-32"/>
      </g>
     </g>
    </g>
    <g id="text_4">
     <!-- −log₁₀(p‐value) -->
     <g transform="translate(587.592188 747.588281)scale(0.25 -0.25)">
      <defs>
       <path id="DejaVuSans-2212" d="M 678 2272 
L 4684 2272 
L 4684 1741 
L 678 1741 
L 678 2272 
z
" transform="scale(0.015625)"/>
       <path id="DejaVuSans-6c" d="M 603 4863 
L 1178 4863 
L 1178 0 
L 603 0 
L 603 4863 
z
" transform="scale(0.015625)"/>
       <path id="DejaVuSans-6f" d="M 1959 3097 
Q 1497 3097 1228 2736 
Q 959 2375 959 1747 
Q 959 1119 1226 758 
Q 1494 397 1959 397 
Q 2419 397 2687 759 
Q 2956 1122 2956 1747 
Q 2956 2369 2687 2733 
Q 2419 3097 1959 3097 
z
M 1959 3584 
Q 2709 3584 3137 3096 
Q 3566 2609 3566 1747 
Q 3566 888 3137 398 
Q 2709 -91 1959 -91 
Q 1206 -91 779 398 
Q 353 888 353 1747 
Q 353 2609 779 3096 
Q 1206 3584 1959 3584 
z
" transform="scale(0.015625)"/>
       <path id="DejaVuSans-67" d="M 2906 1791 
Q 2906 2416 2648 2759 
Q 2391 3103 1925 3103 
Q 1463 3103 1205 2759 
Q 947 2416 947 1791 
Q 947 1169 1205 825 
Q 1463 481 1925 481 
Q 2391 481 2648 825 
Q 2906 1169 2906 1791 
z
M 3481 434 
Q 3481 -459 3084 -895 
Q 2688 -1331 1869 -1331 
Q 1566 -1331 1297 -1286 
Q 1028 -1241 775 -1147 
L 775 -588 
Q 1028 -725 1275 -790 
Q 1522 -856 1778 -856 
Q 2344 -856 2625 -561 
Q 2906 -266 2906 331 
L 2906 616 
Q 2728 306 2450 153 
Q 2172 0 1784 0 
Q 1141 0 747 490 
Q 353 981 353 1791 
Q 353 2603 747 3093 
Q 1141 3584 1784 3584 
Q 2172 3584 2450 3431 
Q 2728 3278 2906 2969 
L 2906 3500 
L 3481 3500 
L 3481 434 
z
" transform="scale(0.015625)"/>
       <path id="DejaVuSans-2081" d="M 488 343 
L 1125 343 
L 1125 2253 
L 428 2125 
L 428 2487 
L 1147 2609 
L 1575 2609 
L 1575 343 
L 2216 343 
L 2216 0 
L 488 0 
L 488 343 
z
" transform="scale(0.015625)"/>
       <path id="DejaVuSans-2080" d="M 1781 2115 
Q 1625 2384 1309 2384 
Q 994 2384 838 2115 
Q 678 1846 678 1309 
Q 678 768 838 500 
Q 994 231 1309 231 
Q 1625 231 1781 500 
Q 1941 768 1941 1309 
Q 1941 1846 1781 2115 
z
M 1309 2662 
Q 1813 2662 2078 2315 
Q 2344 1968 2344 1309 
Q 2344 646 2078 299 
Q 1813 -47 1309 -47 
Q 803 -47 537 299 
Q 272 646 272 1309 
Q 272 1968 537 2315 
Q 803 2662 1309 2662 
z
" transform="scale(0.015625)"/>
       <path id="DejaVuSans-28" d="M 1984 4856 
Q 1566 4138 1362 3434 
Q 1159 2731 1159 2009 
Q 1159 1288 1364 580 
Q 1569 -128 1984 -844 
L 1484 -844 
Q 1016 -109 783 600 
Q 550 1309 550 2009 
Q 550 2706 781 3412 
Q 1013 4119 1484 4856 
L 1984 4856 
z
" transform="scale(0.015625)"/>
       <path id="DejaVuSans-70" d="M 1159 525 
L 1159 -1331 
L 581 -1331 
L 581 3500 
L 1159 3500 
L 1159 2969 
Q 1341 3281 1617 3432 
Q 1894 3584 2278 3584 
Q 2916 3584 3314 3078 
Q 3713 2572 3713 1747 
Q 3713 922 3314 415 
Q 2916 -91 2278 -91 
Q 1894 -91 1617 61 
Q 1341 213 1159 525 
z
M 3116 1747 
Q 3116 2381 2855 2742 
Q 2594 3103 2138 3103 
Q 1681 3103 1420 2742 
Q 1159 2381 1159 1747 
Q 1159 1113 1420 752 
Q 1681 391 2138 391 
Q 2594 391 2855 752 
Q 3116 1113 3116 1747 
z
" transform="scale(0.015625)"/>
       <path id="DejaVuSans-2010" d="M 313 2009 
L 1997 2009 
L 1997 1497 
L 313 1497 
L 313 2009 
z
" transform="scale(0.015625)"/>
       <path id="DejaVuSans-76" d="M 191 3500 
L 800 3500 
L 1894 563 
L 2988 3500 
L 3597 3500 
L 2284 0 
L 1503 0 
L 191 3500 
z
" transform="scale(0.015625)"/>
       <path id="DejaVuSans-61" d="M 2194 1759 
Q 1497 1759 1228 1600 
Q 959 1441 959 1056 
Q 959 750 1161 570 
Q 1363 391 1709 391 
Q 2188 391 2477 730 
Q 2766 1069 2766 1631 
L 2766 1759 
L 2194 1759 
z
M 3341 1997 
L 3341 0 
L 2766 0 
L 2766 531 
Q 2569 213 2275 61 
Q 1981 -91 1556 -91 
Q 1019 -91 701 211 
Q 384 513 384 1019 
Q 384 1609 779 1909 
Q 1175 2209 1959 2209 
L 2766 2209 
L 2766 2266 
Q 2766 2663 2505 2880 
Q 2244 3097 1772 3097 
Q 1472 3097 1187 3025 
Q 903 2953 641 2809 
L 641 3341 
Q 956 3463 1253 3523 
Q 1550 3584 1831 3584 
Q 2591 3584 2966 3190 
Q 3341 2797 3341 1997 
z
" transform="scale(0.015625)"/>
       <path id="DejaVuSans-75" d="M 544 1381 
L 544 3500 
L 1119 3500 
L 1119 1403 
Q 1119 906 1312 657 
Q 1506 409 1894 409 
Q 2359 409 2629 706 
Q 2900 1003 2900 1516 
L 2900 3500 
L 3475 3500 
L 3475 0 
L 2900 0 
L 2900 538 
Q 2691 219 2414 64 
Q 2138 -91 1772 -91 
Q 1169 -91 856 284 
Q 544 659 544 1381 
z
M 1991 3584 
L 1991 3584 
z
" transform="scale(0.015625)"/>
       <path id="DejaVuSans-65" d="M 3597 1894 
L 3597 1613 
L 953 1613 
Q 991 1019 1311 708 
Q 1631 397 2203 397 
Q 2534 397 2845 478 
Q 3156 559 3463 722 
L 3463 178 
Q 3153 47 2828 -22 
Q 2503 -91 2169 -91 
Q 1331 -91 842 396 
Q 353 884 353 1716 
Q 353 2575 817 3079 
Q 1281 3584 2069 3584 
Q 2775 3584 3186 3129 
Q 3597 2675 3597 1894 
z
M 3022 2063 
Q 3016 2534 2758 2815 
Q 2500 3097 2075 3097 
Q 1594 3097 1305 2825 
Q 1016 2553 972 2059 
L 3022 2063 
z
" transform="scale(0.015625)"/>
       <path id="DejaVuSans-29" d="M 513 4856 
L 1013 4856 
Q 1481 4119 1714 3412 
Q 1947 2706 1947 2009 
Q 1947 1309 1714 600 
Q 1481 -109 1013 -844 
L 513 -844 
Q 928 -128 1133 580 
Q 1338 1288 1338 2009 
Q 1338 2731 1133 3434 
Q 928 4138 513 4856 
z
" transform="scale(0.015625)"/>
      </defs>
      <use xlink:href="#DejaVuSans-2212"/>
      <use xlink:href="#DejaVuSans-6c" x="83.789062"/>
      <use xlink:href="#DejaVuSans-6f" x="111.572266"/>
      <use xlink:href="#DejaVuSans-67" x="172.753906"/>
      <use xlink:href="#DejaVuSans-2081" x="236.230469"/>
      <use xlink:href="#DejaVuSans-2080" x="276.318359"/>
      <use xlink:href="#DejaVuSans-28" x="316.40625"/>
      <use xlink:href="#DejaVuSans-70" x="355.419922"/>
      <use xlink:href="#DejaVuSans-2010" x="418.896484"/>
      <use xlink:href="#DejaVuSans-76" x="452.355469"/>
      <use xlink:href="#DejaVuSans-61" x="511.535156"/>
      <use xlink:href="#DejaVuSans-6c" x="572.814453"/>
      <use xlink:href="#DejaVuSans-75" x="600.597656"/>
      <use xlink:href="#DejaVuSans-65" x="663.976562"/>
      <use xlink:href="#DejaVuSans-29" x="725.5"/>
     </g>
    </g>
   </g>
   <g id="line2d_4">
    <path clip-path="url(#p5b49a89f58)" style="fill: none; stroke: #424242; stroke-width: 2.7; stroke-linecap: square"/>
   </g>
   <g id="line2d_5">
    <path clip-path="url(#p5b49a89f58)" style="fill: none; stroke: #424242; stroke-width: 2.7; stroke-linecap: square"/>
   </g>
   <g id="line2d_6">
    <path clip-path="url(#p5b49a89f58)" style="fill: none; stroke: #424242; stroke-width: 2.7; stroke-linecap: square"/>
   </g>
   <g id="line2d_7">
    <path clip-path="url(#p5b49a89f58)" style="fill: none; stroke: #424242; stroke-width: 2.7; stroke-linecap: square"/>
   </g>
   <g id="line2d_8">
    <path clip-path="url(#p5b49a89f58)" style="fill: none; stroke: #424242; stroke-width: 2.7; stroke-linecap: square"/>
   </g>
   <g id="line2d_9">
    <path clip-path="url(#p5b49a89f58)" style="fill: none; stroke: #424242; stroke-width: 2.7; stroke-linecap: square"/>
   </g>
   <g id="line2d_10">
    <path clip-path="url(#p5b49a89f58)" style="fill: none; stroke: #424242; stroke-width: 2.7; stroke-linecap: square"/>
   </g>
   <g id="line2d_11">
    <path clip-path="url(#p5b49a89f58)" style="fill: none; stroke: #424242; stroke-width: 2.7; stroke-linecap: square"/>
   </g>
   <g id="line2d_12">
    <path clip-path="url(#p5b49a89f58)" style="fill: none; stroke: #424242; stroke-width: 2.7; stroke-linecap: square"/>
   </g>
   <g id="line2d_13">
    <path clip-path="url(#p5b49a89f58)" style="fill: none; stroke: #424242; stroke-width: 2.7; stroke-linecap: square"/>
   </g>
   <g id="line2d_14">
    <path clip-path="url(#p5b49a89f58)" style="fill: none; stroke: #424242; stroke-width: 2.7; stroke-linecap: square"/>
   </g>
   <g id="line2d_15">
    <path clip-path="url(#p5b49a89f58)" style="fill: none; stroke: #424242; stroke-width: 2.7; stroke-linecap: square"/>
   </g>
   <g id="line2d_16">
    <path clip-path="url(#p5b49a89f58)" style="fill: none; stroke: #424242; stroke-width: 2.7; stroke-linecap: square"/>
   </g>
   <g id="line2d_17">
    <path clip-path="url(#p5b49a89f58)" style="fill: none; stroke: #424242; stroke-width: 2.7; stroke-linecap: square"/>
   </g>
   <g id="patch_17">
    <path d="M 13.5625 698.235938 
L 13.5625 32.955937 
" style="fill: none; stroke: #000000; stroke-width: 0.8; stroke-linejoin: miter; stroke-linecap: square"/>
   </g>
   <g id="patch_18">
    <path d="M 13.5625 698.235937 
L 1352.7625 698.235937 
" style="fill: none; stroke: #000000; stroke-width: 0.8; stroke-linejoin: miter; stroke-linecap: square"/>
   </g>
   <g id="text_5">
    <!-- Golgi apparatus -->
    <g transform="translate(20.2585 56.715937)scale(0.26 -0.26)">
     <defs>
      <path id="DejaVuSans-47" d="M 3809 666 
L 3809 1919 
L 2778 1919 
L 2778 2438 
L 4434 2438 
L 4434 434 
Q 4069 175 3628 42 
Q 3188 -91 2688 -91 
Q 1594 -91 976 548 
Q 359 1188 359 2328 
Q 359 3472 976 4111 
Q 1594 4750 2688 4750 
Q 3144 4750 3555 4637 
Q 3966 4525 4313 4306 
L 4313 3634 
Q 3963 3931 3569 4081 
Q 3175 4231 2741 4231 
Q 1884 4231 1454 3753 
Q 1025 3275 1025 2328 
Q 1025 1384 1454 906 
Q 1884 428 2741 428 
Q 3075 428 3337 486 
Q 3600 544 3809 666 
z
" transform="scale(0.015625)"/>
      <path id="DejaVuSans-69" d="M 603 3500 
L 1178 3500 
L 1178 0 
L 603 0 
L 603 3500 
z
M 603 4863 
L 1178 4863 
L 1178 4134 
L 603 4134 
L 603 4863 
z
" transform="scale(0.015625)"/>
      <path id="DejaVuSans-20" transform="scale(0.015625)"/>
      <path id="DejaVuSans-72" d="M 2631 2963 
Q 2534 3019 2420 3045 
Q 2306 3072 2169 3072 
Q 1681 3072 1420 2755 
Q 1159 2438 1159 1844 
L 1159 0 
L 581 0 
L 581 3500 
L 1159 3500 
L 1159 2956 
Q 1341 3275 1631 3429 
Q 1922 3584 2338 3584 
Q 2397 3584 2469 3576 
Q 2541 3569 2628 3553 
L 2631 2963 
z
" transform="scale(0.015625)"/>
      <path id="DejaVuSans-74" d="M 1172 4494 
L 1172 3500 
L 2356 3500 
L 2356 3053 
L 1172 3053 
L 1172 1153 
Q 1172 725 1289 603 
Q 1406 481 1766 481 
L 2356 481 
L 2356 0 
L 1766 0 
Q 1100 0 847 248 
Q 594 497 594 1153 
L 594 3053 
L 172 3053 
L 172 3500 
L 594 3500 
L 594 4494 
L 1172 4494 
z
" transform="scale(0.015625)"/>
      <path id="DejaVuSans-73" d="M 2834 3397 
L 2834 2853 
Q 2591 2978 2328 3040 
Q 2066 3103 1784 3103 
Q 1356 3103 1142 2972 
Q 928 2841 928 2578 
Q 928 2378 1081 2264 
Q 1234 2150 1697 2047 
L 1894 2003 
Q 2506 1872 2764 1633 
Q 3022 1394 3022 966 
Q 3022 478 2636 193 
Q 2250 -91 1575 -91 
Q 1294 -91 989 -36 
Q 684 19 347 128 
L 347 722 
Q 666 556 975 473 
Q 1284 391 1588 391 
Q 1994 391 2212 530 
Q 2431 669 2431 922 
Q 2431 1156 2273 1281 
Q 2116 1406 1581 1522 
L 1381 1569 
Q 847 1681 609 1914 
Q 372 2147 372 2553 
Q 372 3047 722 3315 
Q 1072 3584 1716 3584 
Q 2034 3584 2315 3537 
Q 2597 3491 2834 3397 
z
" transform="scale(0.015625)"/>
     </defs>
     <use xlink:href="#DejaVuSans-47"/>
     <use xlink:href="#DejaVuSans-6f" x="77.490234"/>
     <use xlink:href="#DejaVuSans-6c" x="138.671875"/>
     <use xlink:href="#DejaVuSans-67" x="166.455078"/>
     <use xlink:href="#DejaVuSans-69" x="229.931641"/>
     <use xlink:href="#DejaVuSans-20" x="257.714844"/>
     <use xlink:href="#DejaVuSans-61" x="289.501953"/>
     <use xlink:href="#DejaVuSans-70" x="350.78125"/>
     <use xlink:href="#DejaVuSans-70" x="414.257812"/>
     <use xlink:href="#DejaVuSans-61" x="477.734375"/>
     <use xlink:href="#DejaVuSans-72" x="539.013672"/>
     <use xlink:href="#DejaVuSans-61" x="580.126953"/>
     <use xlink:href="#DejaVuSans-74" x="641.40625"/>
     <use xlink:href="#DejaVuSans-75" x="680.615234"/>
     <use xlink:href="#DejaVuSans-73" x="743.994141"/>
    </g>
   </g>
   <g id="text_6">
    <!-- Axon -->
    <g transform="translate(20.2585 104.235937)scale(0.26 -0.26)">
     <defs>
      <path id="DejaVuSans-41" d="M 2188 4044 
L 1331 1722 
L 3047 1722 
L 2188 4044 
z
M 1831 4666 
L 2547 4666 
L 4325 0 
L 3669 0 
L 3244 1197 
L 1141 1197 
L 716 0 
L 50 0 
L 1831 4666 
z
" transform="scale(0.015625)"/>
      <path id="DejaVuSans-78" d="M 3513 3500 
L 2247 1797 
L 3578 0 
L 2900 0 
L 1881 1375 
L 863 0 
L 184 0 
L 1544 1831 
L 300 3500 
L 978 3500 
L 1906 2253 
L 2834 3500 
L 3513 3500 
z
" transform="scale(0.015625)"/>
      <path id="DejaVuSans-6e" d="M 3513 2113 
L 3513 0 
L 2938 0 
L 2938 2094 
Q 2938 2591 2744 2837 
Q 2550 3084 2163 3084 
Q 1697 3084 1428 2787 
Q 1159 2491 1159 1978 
L 1159 0 
L 581 0 
L 581 3500 
L 1159 3500 
L 1159 2956 
Q 1366 3272 1645 3428 
Q 1925 3584 2291 3584 
Q 2894 3584 3203 3211 
Q 3513 2838 3513 2113 
z
" transform="scale(0.015625)"/>
     </defs>
     <use xlink:href="#DejaVuSans-41"/>
     <use xlink:href="#DejaVuSans-78" x="68.408203"/>
     <use xlink:href="#DejaVuSans-6f" x="124.462891"/>
     <use xlink:href="#DejaVuSans-6e" x="185.644531"/>
    </g>
   </g>
   <g id="text_7">
    <!-- Neuron projection -->
    <g transform="translate(20.2585 151.755937)scale(0.26 -0.26)">
     <defs>
      <path id="DejaVuSans-4e" d="M 628 4666 
L 1478 4666 
L 3547 763 
L 3547 4666 
L 4159 4666 
L 4159 0 
L 3309 0 
L 1241 3903 
L 1241 0 
L 628 0 
L 628 4666 
z
" transform="scale(0.015625)"/>
      <path id="DejaVuSans-6a" d="M 603 3500 
L 1178 3500 
L 1178 -63 
Q 1178 -731 923 -1031 
Q 669 -1331 103 -1331 
L -116 -1331 
L -116 -844 
L 38 -844 
Q 366 -844 484 -692 
Q 603 -541 603 -63 
L 603 3500 
z
M 603 4863 
L 1178 4863 
L 1178 4134 
L 603 4134 
L 603 4863 
z
" transform="scale(0.015625)"/>
      <path id="DejaVuSans-63" d="M 3122 3366 
L 3122 2828 
Q 2878 2963 2633 3030 
Q 2388 3097 2138 3097 
Q 1578 3097 1268 2742 
Q 959 2388 959 1747 
Q 959 1106 1268 751 
Q 1578 397 2138 397 
Q 2388 397 2633 464 
Q 2878 531 3122 666 
L 3122 134 
Q 2881 22 2623 -34 
Q 2366 -91 2075 -91 
Q 1284 -91 818 406 
Q 353 903 353 1747 
Q 353 2603 823 3093 
Q 1294 3584 2113 3584 
Q 2378 3584 2631 3529 
Q 2884 3475 3122 3366 
z
" transform="scale(0.015625)"/>
     </defs>
     <use xlink:href="#DejaVuSans-4e"/>
     <use xlink:href="#DejaVuSans-65" x="74.804688"/>
     <use xlink:href="#DejaVuSans-75" x="136.328125"/>
     <use xlink:href="#DejaVuSans-72" x="199.707031"/>
     <use xlink:href="#DejaVuSans-6f" x="238.570312"/>
     <use xlink:href="#DejaVuSans-6e" x="299.751953"/>
     <use xlink:href="#DejaVuSans-20" x="363.130859"/>
     <use xlink:href="#DejaVuSans-70" x="394.917969"/>
     <use xlink:href="#DejaVuSans-72" x="458.394531"/>
     <use xlink:href="#DejaVuSans-6f" x="497.257812"/>
     <use xlink:href="#DejaVuSans-6a" x="558.439453"/>
     <use xlink:href="#DejaVuSans-65" x="586.222656"/>
     <use xlink:href="#DejaVuSans-63" x="647.746094"/>
     <use xlink:href="#DejaVuSans-74" x="702.726562"/>
     <use xlink:href="#DejaVuSans-69" x="741.935547"/>
     <use xlink:href="#DejaVuSans-6f" x="769.71875"/>
     <use xlink:href="#DejaVuSans-6e" x="830.900391"/>
    </g>
   </g>
   <g id="text_8">
    <!-- Neuron projection terminus -->
    <g transform="translate(20.2585 199.275938)scale(0.26 -0.26)">
     <defs>
      <path id="DejaVuSans-6d" d="M 3328 2828 
Q 3544 3216 3844 3400 
Q 4144 3584 4550 3584 
Q 5097 3584 5394 3201 
Q 5691 2819 5691 2113 
L 5691 0 
L 5113 0 
L 5113 2094 
Q 5113 2597 4934 2840 
Q 4756 3084 4391 3084 
Q 3944 3084 3684 2787 
Q 3425 2491 3425 1978 
L 3425 0 
L 2847 0 
L 2847 2094 
Q 2847 2600 2669 2842 
Q 2491 3084 2119 3084 
Q 1678 3084 1418 2786 
Q 1159 2488 1159 1978 
L 1159 0 
L 581 0 
L 581 3500 
L 1159 3500 
L 1159 2956 
Q 1356 3278 1631 3431 
Q 1906 3584 2284 3584 
Q 2666 3584 2933 3390 
Q 3200 3197 3328 2828 
z
" transform="scale(0.015625)"/>
     </defs>
     <use xlink:href="#DejaVuSans-4e"/>
     <use xlink:href="#DejaVuSans-65" x="74.804688"/>
     <use xlink:href="#DejaVuSans-75" x="136.328125"/>
     <use xlink:href="#DejaVuSans-72" x="199.707031"/>
     <use xlink:href="#DejaVuSans-6f" x="238.570312"/>
     <use xlink:href="#DejaVuSans-6e" x="299.751953"/>
     <use xlink:href="#DejaVuSans-20" x="363.130859"/>
     <use xlink:href="#DejaVuSans-70" x="394.917969"/>
     <use xlink:href="#DejaVuSans-72" x="458.394531"/>
     <use xlink:href="#DejaVuSans-6f" x="497.257812"/>
     <use xlink:href="#DejaVuSans-6a" x="558.439453"/>
     <use xlink:href="#DejaVuSans-65" x="586.222656"/>
     <use xlink:href="#DejaVuSans-63" x="647.746094"/>
     <use xlink:href="#DejaVuSans-74" x="702.726562"/>
     <use xlink:href="#DejaVuSans-69" x="741.935547"/>
     <use xlink:href="#DejaVuSans-6f" x="769.71875"/>
     <use xlink:href="#DejaVuSans-6e" x="830.900391"/>
     <use xlink:href="#DejaVuSans-20" x="894.279297"/>
     <use xlink:href="#DejaVuSans-74" x="926.066406"/>
     <use xlink:href="#DejaVuSans-65" x="965.275391"/>
     <use xlink:href="#DejaVuSans-72" x="1026.798828"/>
     <use xlink:href="#DejaVuSans-6d" x="1066.162109"/>
     <use xlink:href="#DejaVuSans-69" x="1163.574219"/>
     <use xlink:href="#DejaVuSans-6e" x="1191.357422"/>
     <use xlink:href="#DejaVuSans-75" x="1254.736328"/>
     <use xlink:href="#DejaVuSans-73" x="1318.115234"/>
    </g>
   </g>
   <g id="text_9">
    <!-- Synapse -->
    <g transform="translate(20.2585 246.795938)scale(0.26 -0.26)">
     <defs>
      <path id="DejaVuSans-53" d="M 3425 4513 
L 3425 3897 
Q 3066 4069 2747 4153 
Q 2428 4238 2131 4238 
Q 1616 4238 1336 4038 
Q 1056 3838 1056 3469 
Q 1056 3159 1242 3001 
Q 1428 2844 1947 2747 
L 2328 2669 
Q 3034 2534 3370 2195 
Q 3706 1856 3706 1288 
Q 3706 609 3251 259 
Q 2797 -91 1919 -91 
Q 1588 -91 1214 -16 
Q 841 59 441 206 
L 441 856 
Q 825 641 1194 531 
Q 1563 422 1919 422 
Q 2459 422 2753 634 
Q 3047 847 3047 1241 
Q 3047 1584 2836 1778 
Q 2625 1972 2144 2069 
L 1759 2144 
Q 1053 2284 737 2584 
Q 422 2884 422 3419 
Q 422 4038 858 4394 
Q 1294 4750 2059 4750 
Q 2388 4750 2728 4690 
Q 3069 4631 3425 4513 
z
" transform="scale(0.015625)"/>
      <path id="DejaVuSans-79" d="M 2059 -325 
Q 1816 -950 1584 -1140 
Q 1353 -1331 966 -1331 
L 506 -1331 
L 506 -850 
L 844 -850 
Q 1081 -850 1212 -737 
Q 1344 -625 1503 -206 
L 1606 56 
L 191 3500 
L 800 3500 
L 1894 763 
L 2988 3500 
L 3597 3500 
L 2059 -325 
z
" transform="scale(0.015625)"/>
     </defs>
     <use xlink:href="#DejaVuSans-53"/>
     <use xlink:href="#DejaVuSans-79" x="63.476562"/>
     <use xlink:href="#DejaVuSans-6e" x="122.65625"/>
     <use xlink:href="#DejaVuSans-61" x="186.035156"/>
     <use xlink:href="#DejaVuSans-70" x="247.314453"/>
     <use xlink:href="#DejaVuSans-73" x="310.791016"/>
     <use xlink:href="#DejaVuSans-65" x="362.890625"/>
    </g>
   </g>
   <g id="text_10">
    <!-- Presynapse -->
    <g transform="translate(20.2585 294.315938)scale(0.26 -0.26)">
     <defs>
      <path id="DejaVuSans-50" d="M 1259 4147 
L 1259 2394 
L 2053 2394 
Q 2494 2394 2734 2622 
Q 2975 2850 2975 3272 
Q 2975 3691 2734 3919 
Q 2494 4147 2053 4147 
L 1259 4147 
z
M 628 4666 
L 2053 4666 
Q 2838 4666 3239 4311 
Q 3641 3956 3641 3272 
Q 3641 2581 3239 2228 
Q 2838 1875 2053 1875 
L 1259 1875 
L 1259 0 
L 628 0 
L 628 4666 
z
" transform="scale(0.015625)"/>
     </defs>
     <use xlink:href="#DejaVuSans-50"/>
     <use xlink:href="#DejaVuSans-72" x="58.552734"/>
     <use xlink:href="#DejaVuSans-65" x="97.416016"/>
     <use xlink:href="#DejaVuSans-73" x="158.939453"/>
     <use xlink:href="#DejaVuSans-79" x="211.039062"/>
     <use xlink:href="#DejaVuSans-6e" x="270.21875"/>
     <use xlink:href="#DejaVuSans-61" x="333.597656"/>
     <use xlink:href="#DejaVuSans-70" x="394.876953"/>
     <use xlink:href="#DejaVuSans-73" x="458.353516"/>
     <use xlink:href="#DejaVuSans-65" x="510.453125"/>
    </g>
   </g>
   <g id="text_11">
    <!-- Presynaptic cytosol -->
    <g transform="translate(20.2585 341.835938)scale(0.26 -0.26)">
     <use xlink:href="#DejaVuSans-50"/>
     <use xlink:href="#DejaVuSans-72" x="58.552734"/>
     <use xlink:href="#DejaVuSans-65" x="97.416016"/>
     <use xlink:href="#DejaVuSans-73" x="158.939453"/>
     <use xlink:href="#DejaVuSans-79" x="211.039062"/>
     <use xlink:href="#DejaVuSans-6e" x="270.21875"/>
     <use xlink:href="#DejaVuSans-61" x="333.597656"/>
     <use xlink:href="#DejaVuSans-70" x="394.876953"/>
     <use xlink:href="#DejaVuSans-74" x="458.353516"/>
     <use xlink:href="#DejaVuSans-69" x="497.5625"/>
     <use xlink:href="#DejaVuSans-63" x="525.345703"/>
     <use xlink:href="#DejaVuSans-20" x="580.326172"/>
     <use xlink:href="#DejaVuSans-63" x="612.113281"/>
     <use xlink:href="#DejaVuSans-79" x="667.09375"/>
     <use xlink:href="#DejaVuSans-74" x="726.273438"/>
     <use xlink:href="#DejaVuSans-6f" x="765.482422"/>
     <use xlink:href="#DejaVuSans-73" x="826.664062"/>
     <use xlink:href="#DejaVuSans-6f" x="878.763672"/>
     <use xlink:href="#DejaVuSans-6c" x="939.945312"/>
    </g>
   </g>
   <g id="text_12">
    <!-- Postsynaptic cytosol -->
    <g transform="translate(20.2585 389.355938)scale(0.26 -0.26)">
     <use xlink:href="#DejaVuSans-50"/>
     <use xlink:href="#DejaVuSans-6f" x="56.677734"/>
     <use xlink:href="#DejaVuSans-73" x="117.859375"/>
     <use xlink:href="#DejaVuSans-74" x="169.958984"/>
     <use xlink:href="#DejaVuSans-73" x="209.167969"/>
     <use xlink:href="#DejaVuSans-79" x="261.267578"/>
     <use xlink:href="#DejaVuSans-6e" x="320.447266"/>
     <use xlink:href="#DejaVuSans-61" x="383.826172"/>
     <use xlink:href="#DejaVuSans-70" x="445.105469"/>
     <use xlink:href="#DejaVuSans-74" x="508.582031"/>
     <use xlink:href="#DejaVuSans-69" x="547.791016"/>
     <use xlink:href="#DejaVuSans-63" x="575.574219"/>
     <use xlink:href="#DejaVuSans-20" x="630.554688"/>
     <use xlink:href="#DejaVuSans-63" x="662.341797"/>
     <use xlink:href="#DejaVuSans-79" x="717.322266"/>
     <use xlink:href="#DejaVuSans-74" x="776.501953"/>
     <use xlink:href="#DejaVuSans-6f" x="815.710938"/>
     <use xlink:href="#DejaVuSans-73" x="876.892578"/>
     <use xlink:href="#DejaVuSans-6f" x="928.992188"/>
     <use xlink:href="#DejaVuSans-6c" x="990.173828"/>
    </g>
   </g>
   <g id="text_13">
    <!-- Plasma membrane bounded cell projection -->
    <g transform="translate(20.2585 436.875938)scale(0.26 -0.26)">
     <defs>
      <path id="DejaVuSans-62" d="M 3116 1747 
Q 3116 2381 2855 2742 
Q 2594 3103 2138 3103 
Q 1681 3103 1420 2742 
Q 1159 2381 1159 1747 
Q 1159 1113 1420 752 
Q 1681 391 2138 391 
Q 2594 391 2855 752 
Q 3116 1113 3116 1747 
z
M 1159 2969 
Q 1341 3281 1617 3432 
Q 1894 3584 2278 3584 
Q 2916 3584 3314 3078 
Q 3713 2572 3713 1747 
Q 3713 922 3314 415 
Q 2916 -91 2278 -91 
Q 1894 -91 1617 61 
Q 1341 213 1159 525 
L 1159 0 
L 581 0 
L 581 4863 
L 1159 4863 
L 1159 2969 
z
" transform="scale(0.015625)"/>
      <path id="DejaVuSans-64" d="M 2906 2969 
L 2906 4863 
L 3481 4863 
L 3481 0 
L 2906 0 
L 2906 525 
Q 2725 213 2448 61 
Q 2172 -91 1784 -91 
Q 1150 -91 751 415 
Q 353 922 353 1747 
Q 353 2572 751 3078 
Q 1150 3584 1784 3584 
Q 2172 3584 2448 3432 
Q 2725 3281 2906 2969 
z
M 947 1747 
Q 947 1113 1208 752 
Q 1469 391 1925 391 
Q 2381 391 2643 752 
Q 2906 1113 2906 1747 
Q 2906 2381 2643 2742 
Q 2381 3103 1925 3103 
Q 1469 3103 1208 2742 
Q 947 2381 947 1747 
z
" transform="scale(0.015625)"/>
     </defs>
     <use xlink:href="#DejaVuSans-50"/>
     <use xlink:href="#DejaVuSans-6c" x="60.302734"/>
     <use xlink:href="#DejaVuSans-61" x="88.085938"/>
     <use xlink:href="#DejaVuSans-73" x="149.365234"/>
     <use xlink:href="#DejaVuSans-6d" x="201.464844"/>
     <use xlink:href="#DejaVuSans-61" x="298.876953"/>
     <use xlink:href="#DejaVuSans-20" x="360.15625"/>
     <use xlink:href="#DejaVuSans-6d" x="391.943359"/>
     <use xlink:href="#DejaVuSans-65" x="489.355469"/>
     <use xlink:href="#DejaVuSans-6d" x="550.878906"/>
     <use xlink:href="#DejaVuSans-62" x="648.291016"/>
     <use xlink:href="#DejaVuSans-72" x="711.767578"/>
     <use xlink:href="#DejaVuSans-61" x="752.880859"/>
     <use xlink:href="#DejaVuSans-6e" x="814.160156"/>
     <use xlink:href="#DejaVuSans-65" x="877.539062"/>
     <use xlink:href="#DejaVuSans-20" x="939.0625"/>
     <use xlink:href="#DejaVuSans-62" x="970.849609"/>
     <use xlink:href="#DejaVuSans-6f" x="1034.326172"/>
     <use xlink:href="#DejaVuSans-75" x="1095.507812"/>
     <use xlink:href="#DejaVuSans-6e" x="1158.886719"/>
     <use xlink:href="#DejaVuSans-64" x="1222.265625"/>
     <use xlink:href="#DejaVuSans-65" x="1285.742188"/>
     <use xlink:href="#DejaVuSans-64" x="1347.265625"/>
     <use xlink:href="#DejaVuSans-20" x="1410.742188"/>
     <use xlink:href="#DejaVuSans-63" x="1442.529297"/>
     <use xlink:href="#DejaVuSans-65" x="1497.509766"/>
     <use xlink:href="#DejaVuSans-6c" x="1559.033203"/>
     <use xlink:href="#DejaVuSans-6c" x="1586.816406"/>
     <use xlink:href="#DejaVuSans-20" x="1614.599609"/>
     <use xlink:href="#DejaVuSans-70" x="1646.386719"/>
     <use xlink:href="#DejaVuSans-72" x="1709.863281"/>
     <use xlink:href="#DejaVuSans-6f" x="1748.726562"/>
     <use xlink:href="#DejaVuSans-6a" x="1809.908203"/>
     <use xlink:href="#DejaVuSans-65" x="1837.691406"/>
     <use xlink:href="#DejaVuSans-63" x="1899.214844"/>
     <use xlink:href="#DejaVuSans-74" x="1954.195312"/>
     <use xlink:href="#DejaVuSans-69" x="1993.404297"/>
     <use xlink:href="#DejaVuSans-6f" x="2021.1875"/>
     <use xlink:href="#DejaVuSans-6e" x="2082.369141"/>
    </g>
   </g>
   <g id="text_14">
    <!-- Endomembrane system -->
    <g transform="translate(20.2585 484.395938)scale(0.26 -0.26)">
     <defs>
      <path id="DejaVuSans-45" d="M 628 4666 
L 3578 4666 
L 3578 4134 
L 1259 4134 
L 1259 2753 
L 3481 2753 
L 3481 2222 
L 1259 2222 
L 1259 531 
L 3634 531 
L 3634 0 
L 628 0 
L 628 4666 
z
" transform="scale(0.015625)"/>
     </defs>
     <use xlink:href="#DejaVuSans-45"/>
     <use xlink:href="#DejaVuSans-6e" x="63.183594"/>
     <use xlink:href="#DejaVuSans-64" x="126.5625"/>
     <use xlink:href="#DejaVuSans-6f" x="190.039062"/>
     <use xlink:href="#DejaVuSans-6d" x="251.220703"/>
     <use xlink:href="#DejaVuSans-65" x="348.632812"/>
     <use xlink:href="#DejaVuSans-6d" x="410.15625"/>
     <use xlink:href="#DejaVuSans-62" x="507.568359"/>
     <use xlink:href="#DejaVuSans-72" x="571.044922"/>
     <use xlink:href="#DejaVuSans-61" x="612.158203"/>
     <use xlink:href="#DejaVuSans-6e" x="673.4375"/>
     <use xlink:href="#DejaVuSans-65" x="736.816406"/>
     <use xlink:href="#DejaVuSans-20" x="798.339844"/>
     <use xlink:href="#DejaVuSans-73" x="830.126953"/>
     <use xlink:href="#DejaVuSans-79" x="882.226562"/>
     <use xlink:href="#DejaVuSans-73" x="941.40625"/>
     <use xlink:href="#DejaVuSans-74" x="993.505859"/>
     <use xlink:href="#DejaVuSans-65" x="1032.714844"/>
     <use xlink:href="#DejaVuSans-6d" x="1094.238281"/>
    </g>
   </g>
   <g id="text_15">
    <!-- Somatodendritic compartment -->
    <g transform="translate(20.2585 531.915938)scale(0.26 -0.26)">
     <use xlink:href="#DejaVuSans-53"/>
     <use xlink:href="#DejaVuSans-6f" x="63.476562"/>
     <use xlink:href="#DejaVuSans-6d" x="124.658203"/>
     <use xlink:href="#DejaVuSans-61" x="222.070312"/>
     <use xlink:href="#DejaVuSans-74" x="283.349609"/>
     <use xlink:href="#DejaVuSans-6f" x="322.558594"/>
     <use xlink:href="#DejaVuSans-64" x="383.740234"/>
     <use xlink:href="#DejaVuSans-65" x="447.216797"/>
     <use xlink:href="#DejaVuSans-6e" x="508.740234"/>
     <use xlink:href="#DejaVuSans-64" x="572.119141"/>
     <use xlink:href="#DejaVuSans-72" x="635.595703"/>
     <use xlink:href="#DejaVuSans-69" x="676.708984"/>
     <use xlink:href="#DejaVuSans-74" x="704.492188"/>
     <use xlink:href="#DejaVuSans-69" x="743.701172"/>
     <use xlink:href="#DejaVuSans-63" x="771.484375"/>
     <use xlink:href="#DejaVuSans-20" x="826.464844"/>
     <use xlink:href="#DejaVuSans-63" x="858.251953"/>
     <use xlink:href="#DejaVuSans-6f" x="913.232422"/>
     <use xlink:href="#DejaVuSans-6d" x="974.414062"/>
     <use xlink:href="#DejaVuSans-70" x="1071.826172"/>
     <use xlink:href="#DejaVuSans-61" x="1135.302734"/>
     <use xlink:href="#DejaVuSans-72" x="1196.582031"/>
     <use xlink:href="#DejaVuSans-74" x="1237.695312"/>
     <use xlink:href="#DejaVuSans-6d" x="1276.904297"/>
     <use xlink:href="#DejaVuSans-65" x="1374.316406"/>
     <use xlink:href="#DejaVuSans-6e" x="1435.839844"/>
     <use xlink:href="#DejaVuSans-74" x="1499.21875"/>
    </g>
   </g>
   <g id="text_16">
    <!-- Postsynaptic density -->
    <g transform="translate(20.2585 579.435938)scale(0.26 -0.26)">
     <use xlink:href="#DejaVuSans-50"/>
     <use xlink:href="#DejaVuSans-6f" x="56.677734"/>
     <use xlink:href="#DejaVuSans-73" x="117.859375"/>
     <use xlink:href="#DejaVuSans-74" x="169.958984"/>
     <use xlink:href="#DejaVuSans-73" x="209.167969"/>
     <use xlink:href="#DejaVuSans-79" x="261.267578"/>
     <use xlink:href="#DejaVuSans-6e" x="320.447266"/>
     <use xlink:href="#DejaVuSans-61" x="383.826172"/>
     <use xlink:href="#DejaVuSans-70" x="445.105469"/>
     <use xlink:href="#DejaVuSans-74" x="508.582031"/>
     <use xlink:href="#DejaVuSans-69" x="547.791016"/>
     <use xlink:href="#DejaVuSans-63" x="575.574219"/>
     <use xlink:href="#DejaVuSans-20" x="630.554688"/>
     <use xlink:href="#DejaVuSans-64" x="662.341797"/>
     <use xlink:href="#DejaVuSans-65" x="725.818359"/>
     <use xlink:href="#DejaVuSans-6e" x="787.341797"/>
     <use xlink:href="#DejaVuSans-73" x="850.720703"/>
     <use xlink:href="#DejaVuSans-69" x="902.820312"/>
     <use xlink:href="#DejaVuSans-74" x="930.603516"/>
     <use xlink:href="#DejaVuSans-79" x="969.8125"/>
    </g>
   </g>
   <g id="text_17">
    <!-- Secretory vesicle -->
    <g transform="translate(20.2585 626.955938)scale(0.26 -0.26)">
     <use xlink:href="#DejaVuSans-53"/>
     <use xlink:href="#DejaVuSans-65" x="63.476562"/>
     <use xlink:href="#DejaVuSans-63" x="125"/>
     <use xlink:href="#DejaVuSans-72" x="179.980469"/>
     <use xlink:href="#DejaVuSans-65" x="218.84375"/>
     <use xlink:href="#DejaVuSans-74" x="280.367188"/>
     <use xlink:href="#DejaVuSans-6f" x="319.576172"/>
     <use xlink:href="#DejaVuSans-72" x="380.757812"/>
     <use xlink:href="#DejaVuSans-79" x="421.871094"/>
     <use xlink:href="#DejaVuSans-20" x="481.050781"/>
     <use xlink:href="#DejaVuSans-76" x="512.837891"/>
     <use xlink:href="#DejaVuSans-65" x="572.017578"/>
     <use xlink:href="#DejaVuSans-73" x="633.541016"/>
     <use xlink:href="#DejaVuSans-69" x="685.640625"/>
     <use xlink:href="#DejaVuSans-63" x="713.423828"/>
     <use xlink:href="#DejaVuSans-6c" x="768.404297"/>
     <use xlink:href="#DejaVuSans-65" x="796.1875"/>
    </g>
   </g>
   <g id="text_18">
    <!-- Schaffer collateral - CA1 synapse -->
    <g transform="translate(20.2585 674.475937)scale(0.26 -0.26)">
     <defs>
      <path id="DejaVuSans-68" d="M 3513 2113 
L 3513 0 
L 2938 0 
L 2938 2094 
Q 2938 2591 2744 2837 
Q 2550 3084 2163 3084 
Q 1697 3084 1428 2787 
Q 1159 2491 1159 1978 
L 1159 0 
L 581 0 
L 581 4863 
L 1159 4863 
L 1159 2956 
Q 1366 3272 1645 3428 
Q 1925 3584 2291 3584 
Q 2894 3584 3203 3211 
Q 3513 2838 3513 2113 
z
" transform="scale(0.015625)"/>
      <path id="DejaVuSans-66" d="M 2375 4863 
L 2375 4384 
L 1825 4384 
Q 1516 4384 1395 4259 
Q 1275 4134 1275 3809 
L 1275 3500 
L 2222 3500 
L 2222 3053 
L 1275 3053 
L 1275 0 
L 697 0 
L 697 3053 
L 147 3053 
L 147 3500 
L 697 3500 
L 697 3744 
Q 697 4328 969 4595 
Q 1241 4863 1831 4863 
L 2375 4863 
z
" transform="scale(0.015625)"/>
      <path id="DejaVuSans-2d" d="M 313 2009 
L 1997 2009 
L 1997 1497 
L 313 1497 
L 313 2009 
z
" transform="scale(0.015625)"/>
      <path id="DejaVuSans-43" d="M 4122 4306 
L 4122 3641 
Q 3803 3938 3442 4084 
Q 3081 4231 2675 4231 
Q 1875 4231 1450 3742 
Q 1025 3253 1025 2328 
Q 1025 1406 1450 917 
Q 1875 428 2675 428 
Q 3081 428 3442 575 
Q 3803 722 4122 1019 
L 4122 359 
Q 3791 134 3420 21 
Q 3050 -91 2638 -91 
Q 1578 -91 968 557 
Q 359 1206 359 2328 
Q 359 3453 968 4101 
Q 1578 4750 2638 4750 
Q 3056 4750 3426 4639 
Q 3797 4528 4122 4306 
z
" transform="scale(0.015625)"/>
     </defs>
     <use xlink:href="#DejaVuSans-53"/>
     <use xlink:href="#DejaVuSans-63" x="63.476562"/>
     <use xlink:href="#DejaVuSans-68" x="118.457031"/>
     <use xlink:href="#DejaVuSans-61" x="181.835938"/>
     <use xlink:href="#DejaVuSans-66" x="243.115234"/>
     <use xlink:href="#DejaVuSans-66" x="278.320312"/>
     <use xlink:href="#DejaVuSans-65" x="313.525391"/>
     <use xlink:href="#DejaVuSans-72" x="375.048828"/>
     <use xlink:href="#DejaVuSans-20" x="416.162109"/>
     <use xlink:href="#DejaVuSans-63" x="447.949219"/>
     <use xlink:href="#DejaVuSans-6f" x="502.929688"/>
     <use xlink:href="#DejaVuSans-6c" x="564.111328"/>
     <use xlink:href="#DejaVuSans-6c" x="591.894531"/>
     <use xlink:href="#DejaVuSans-61" x="619.677734"/>
     <use xlink:href="#DejaVuSans-74" x="680.957031"/>
     <use xlink:href="#DejaVuSans-65" x="720.166016"/>
     <use xlink:href="#DejaVuSans-72" x="781.689453"/>
     <use xlink:href="#DejaVuSans-61" x="822.802734"/>
     <use xlink:href="#DejaVuSans-6c" x="884.082031"/>
     <use xlink:href="#DejaVuSans-20" x="911.865234"/>
     <use xlink:href="#DejaVuSans-2d" x="943.652344"/>
     <use xlink:href="#DejaVuSans-20" x="979.736328"/>
     <use xlink:href="#DejaVuSans-43" x="1011.523438"/>
     <use xlink:href="#DejaVuSans-41" x="1081.347656"/>
     <use xlink:href="#DejaVuSans-31" x="1149.755859"/>
     <use xlink:href="#DejaVuSans-20" x="1213.378906"/>
     <use xlink:href="#DejaVuSans-73" x="1245.166016"/>
     <use xlink:href="#DejaVuSans-79" x="1297.265625"/>
     <use xlink:href="#DejaVuSans-6e" x="1356.445312"/>
     <use xlink:href="#DejaVuSans-61" x="1419.824219"/>
     <use xlink:href="#DejaVuSans-70" x="1481.103516"/>
     <use xlink:href="#DejaVuSans-73" x="1544.580078"/>
     <use xlink:href="#DejaVuSans-65" x="1596.679688"/>
    </g>
   </g>
   <g id="text_19">
    <!-- GO Cellular Component -->
    <g transform="translate(529.656875 26.955937)scale(0.26 -0.26)">
     <defs>
      <path id="DejaVuSans-4f" d="M 2522 4238 
Q 1834 4238 1429 3725 
Q 1025 3213 1025 2328 
Q 1025 1447 1429 934 
Q 1834 422 2522 422 
Q 3209 422 3611 934 
Q 4013 1447 4013 2328 
Q 4013 3213 3611 3725 
Q 3209 4238 2522 4238 
z
M 2522 4750 
Q 3503 4750 4090 4092 
Q 4678 3434 4678 2328 
Q 4678 1225 4090 567 
Q 3503 -91 2522 -91 
Q 1538 -91 948 565 
Q 359 1222 359 2328 
Q 359 3434 948 4092 
Q 1538 4750 2522 4750 
z
" transform="scale(0.015625)"/>
     </defs>
     <use xlink:href="#DejaVuSans-47"/>
     <use xlink:href="#DejaVuSans-4f" x="77.490234"/>
     <use xlink:href="#DejaVuSans-20" x="156.201172"/>
     <use xlink:href="#DejaVuSans-43" x="187.988281"/>
     <use xlink:href="#DejaVuSans-65" x="257.8125"/>
     <use xlink:href="#DejaVuSans-6c" x="319.335938"/>
     <use xlink:href="#DejaVuSans-6c" x="347.119141"/>
     <use xlink:href="#DejaVuSans-75" x="374.902344"/>
     <use xlink:href="#DejaVuSans-6c" x="438.28125"/>
     <use xlink:href="#DejaVuSans-61" x="466.064453"/>
     <use xlink:href="#DejaVuSans-72" x="527.34375"/>
     <use xlink:href="#DejaVuSans-20" x="568.457031"/>
     <use xlink:href="#DejaVuSans-43" x="600.244141"/>
     <use xlink:href="#DejaVuSans-6f" x="670.068359"/>
     <use xlink:href="#DejaVuSans-6d" x="731.25"/>
     <use xlink:href="#DejaVuSans-70" x="828.662109"/>
     <use xlink:href="#DejaVuSans-6f" x="892.138672"/>
     <use xlink:href="#DejaVuSans-6e" x="953.320312"/>
     <use xlink:href="#DejaVuSans-65" x="1016.699219"/>
     <use xlink:href="#DejaVuSans-6e" x="1078.222656"/>
     <use xlink:href="#DejaVuSans-74" x="1141.601562"/>
    </g>
   </g>
  </g>
 </g>
 <defs>
  <clipPath id="p5b49a89f58">
   <rect x="13.5625" y="32.955937" width="1339.2" height="665.28"/>
  </clipPath>
 </defs>
</svg>
